<svg width="20" height="20" viewBox="0 0 20 20" fill="none" xmlns="http://www.w3.org/2000/svg">
<path d="M4.00003 7.89014C3.99828 7.66354 4.0821 7.44403 4.236 7.27217C4.30928 7.18895 4.40018 7.12168 4.50265 7.07478C4.60512 7.02789 4.71682 7.00244 4.83032 7.00017C4.94382 6.9979 5.05651 7.01885 5.16093 7.06161C5.26534 7.10437 5.35911 7.16794 5.43593 7.24815L10.0006 11.8726L14.5653 7.24815C14.6421 7.16794 14.7359 7.10437 14.8403 7.06161C14.9447 7.01885 15.0574 6.9979 15.1709 7.00017C15.2844 7.00244 15.3961 7.02789 15.4986 7.07478C15.601 7.12168 15.6919 7.18895 15.7652 7.27217C15.9207 7.44956 16.0041 7.67498 15.9998 7.90677C15.9956 8.13856 15.9041 8.36101 15.7422 8.53306L10.5896 13.7534C10.5147 13.8311 10.4238 13.8932 10.3227 13.9356C10.2216 13.9781 10.1125 14 10.0021 14C9.89177 14 9.78259 13.9781 9.68149 13.9356C9.58039 13.8932 9.48953 13.8311 9.41463 13.7534L4.26301 8.53306C4.09285 8.35894 3.99873 8.12885 4.00003 7.89014Z" fill="#159822"/>
</svg>
