<svg width="28" height="28" viewBox="0 0 28 28" fill="none" xmlns="http://www.w3.org/2000/svg">
<g clip-path="url(#clip0)">
<path d="M5.6875 11.5938H10.7188C11.1718 11.5938 11.5391 11.2265 11.5391 10.7735C11.5391 10.3204 11.1718 9.95314 10.7188 9.95314H5.6875C5.23441 9.95314 4.86719 10.3204 4.86719 10.7735C4.86719 11.2265 5.23441 11.5938 5.6875 11.5938Z" fill="#363636"/>
<path d="M5.6875 14.875H10.7188C11.1718 14.875 11.5391 14.5078 11.5391 14.0547C11.5391 13.6016 11.1718 13.2344 10.7188 13.2344H5.6875C5.23441 13.2344 4.86719 13.6016 4.86719 14.0547C4.86719 14.5078 5.23441 14.875 5.6875 14.875Z" fill="#363636"/>
<path d="M12.3594 24.7188C13.7616 24.7188 15.1335 24.5169 16.4424 24.1183L21.8985 26.3008C22.1754 26.4115 22.4881 26.3628 22.7176 26.1782C22.9485 25.9924 23.0611 25.6965 23.0124 25.4043L22.1903 20.4721C23.7887 18.6326 24.6641 16.3691 24.6641 14.0547C24.6641 12.5241 24.2819 11.0041 23.5543 9.62136L27.705 5.47045C28.0254 5.15023 28.0254 4.63091 27.705 4.31047L25.3849 1.99031C25.231 1.83629 25.0223 1.74998 24.8049 1.74998C24.5874 1.74998 24.3787 1.83629 24.2249 1.99031L20.3053 5.90987C18.086 4.28078 15.2946 3.39061 12.3594 3.39061C5.89408 3.39061 -0.0546875 7.87841 -0.0546875 14.0547C-0.0546875 20.2611 5.93082 24.7188 12.3594 24.7188ZM14.9165 14.0684L15.627 14.7789L14.2057 15.4896L14.9165 14.0684ZM17.0119 13.8436L15.8517 12.6834L20.9449 7.59023L22.4847 6.05065L23.6447 7.21062L17.0119 13.8436ZM24.8049 3.73027L25.9648 4.89046L24.8049 6.05065L23.6447 4.89046L24.8049 3.73027ZM12.3594 5.03124C14.8549 5.03124 17.2247 5.75563 19.1295 7.08565L14.1115 12.1034C14.0481 12.1669 13.991 12.2504 13.9579 12.3166L11.8584 16.5156H5.68751C5.23441 16.5156 4.86719 16.8828 4.86719 17.3359C4.86719 17.789 5.23441 18.1562 5.68751 18.1562H12.3594C12.5232 18.1562 12.6753 18.1078 12.8035 18.0251L17.3787 15.7374C17.4466 15.7034 17.5286 15.6468 17.5919 15.5836L22.329 10.8465C22.7898 11.8657 23.0235 12.9406 23.0235 14.0547C23.0235 16.1097 22.2262 18.0464 20.7176 19.6555C20.5429 19.842 20.4649 20.0992 20.5068 20.3514L21.1543 24.236L16.7793 22.486C16.6 22.4144 16.4014 22.4082 16.2181 22.4684C14.9887 22.8731 13.6905 23.0781 12.3594 23.0781C6.41895 23.0781 1.58594 19.0302 1.58594 14.0547C1.58594 9.07919 6.41895 5.03124 12.3594 5.03124Z" fill="#363636"/>
</g>
<defs>
<clipPath id="clip0">
<rect width="28" height="28" fill="white"/>
</clipPath>
</defs>
</svg>
