<svg width="28" height="28" viewBox="0 0 28 28" fill="none" xmlns="http://www.w3.org/2000/svg">
<path d="M27.822 13.4554C27.5719 13.1132 21.6119 5.0769 13.9999 5.0769C6.38784 5.0769 0.427548 13.1132 0.17768 13.455C-0.0592267 13.7797 -0.0592267 14.22 0.17768 14.5446C0.427548 14.8868 6.38784 22.9231 13.9999 22.9231C21.6119 22.9231 27.5719 14.8867 27.822 14.5449C28.0593 14.2203 28.0593 13.7797 27.822 13.4554ZM13.9999 21.0769C8.3928 21.0769 3.53648 15.7431 2.09891 13.9994C3.53462 12.2541 8.38077 6.92305 13.9999 6.92305C19.6067 6.92305 24.4626 12.256 25.9008 14.0006C24.4651 15.7458 19.619 21.0769 13.9999 21.0769Z" fill="#363636"/>
<path d="M13.9994 8.46155C10.9456 8.46155 8.46094 10.9462 8.46094 14C8.46094 17.0539 10.9456 19.5385 13.9994 19.5385C17.0533 19.5385 19.5379 17.0539 19.5379 14C19.5379 10.9462 17.0533 8.46155 13.9994 8.46155ZM13.9994 17.6923C11.9634 17.6923 10.3071 16.036 10.3071 14C10.3071 11.9641 11.9635 10.3077 13.9994 10.3077C16.0354 10.3077 17.6917 11.9641 17.6917 14C17.6917 16.036 16.0354 17.6923 13.9994 17.6923Z" fill="#363636"/>
</svg>
