<svg width="28" height="28" viewBox="0 0 28 28" fill="none" xmlns="http://www.w3.org/2000/svg">
<path d="M9.95312 19.7969H4.21094C3.75791 19.7969 3.39062 20.1642 3.39062 20.6172C3.39062 21.0702 3.75791 21.4375 4.21094 21.4375H9.95312C10.4062 21.4375 10.7734 21.0702 10.7734 20.6172C10.7734 20.1642 10.4062 19.7969 9.95312 19.7969Z" fill="#363636"/>
<path d="M9.95312 16.5156H4.21094C3.75791 16.5156 3.39062 16.8829 3.39062 17.3359C3.39062 17.789 3.75791 18.1562 4.21094 18.1562H9.95312C10.4062 18.1562 10.7734 17.789 10.7734 17.3359C10.7734 16.8829 10.4062 16.5156 9.95312 16.5156Z" fill="#363636"/>
<path d="M9.95312 13.2344H4.21094C3.75791 13.2344 3.39062 13.6017 3.39062 14.0547C3.39062 14.5077 3.75791 14.875 4.21094 14.875H9.95312C10.4062 14.875 10.7734 14.5077 10.7734 14.0547C10.7734 13.6017 10.4062 13.2344 9.95312 13.2344Z" fill="#363636"/>
<path d="M4.21094 9.95312H15.6953C16.1483 9.95312 16.5156 9.58584 16.5156 9.13281C16.5156 8.67978 16.1483 8.3125 15.6953 8.3125H4.21094C3.75791 8.3125 3.39062 8.67978 3.39062 9.13281C3.39062 9.58584 3.75791 9.95312 4.21094 9.95312Z" fill="#363636"/>
<path d="M27.9993 8.22615C27.9993 8.07138 27.9759 6.7031 27.179 5.9063C26.3818 5.10907 25.0126 5.08599 24.8589 5.08599C24.8589 5.08599 24.8589 5.08599 24.8588 5.08599C24.8586 5.08599 24.8584 5.08605 24.8581 5.08605C24.652 5.08621 24.4363 5.16879 24.2789 5.32618C24.2788 5.32623 24.2788 5.32623 24.2788 5.32629L21.4394 8.1136V0.820312C21.4394 0.367281 21.0721 0 20.6191 0H18.1582C17.7051 0 17.3378 0.367281 17.3378 0.820312C17.3378 1.27263 16.9698 1.64062 16.5175 1.64062C16.0652 1.64062 15.6972 1.27263 15.6972 0.820312C15.6972 0.367281 15.3299 0 14.8769 0H12.416C11.9629 0 11.5957 0.367281 11.5957 0.820312C11.5957 1.27263 11.2277 1.64062 10.7753 1.64062C10.323 1.64062 9.95502 1.27263 9.95502 0.820312C9.95502 0.367281 9.58774 0 9.13471 0H6.67377C6.22074 0 5.85346 0.367281 5.85346 0.820312C5.85346 1.27263 5.48547 1.64062 5.03315 1.64062C4.58083 1.64062 4.21284 1.27263 4.21284 0.820312C4.21284 0.367281 3.84556 0 3.39252 0H0.822211C0.604719 0 0.396031 0.0864609 0.24225 0.240242C0.0883594 0.394133 0.00195312 0.602766 0.00195312 0.820312V23.8984C0.00195312 26.16 1.84191 28 4.10352 28H22.2598C23.6167 28 24.7207 26.896 24.7207 25.5391V20.6172C24.7207 20.1642 24.3534 19.7969 23.9004 19.7969H21.4395V15.0741C28.1958 8.3177 23.9771 12.5548 27.7589 8.80666C27.9156 8.65014 27.9994 8.43484 27.9993 8.22615ZM26.3328 7.91263L24.2815 9.91195C23.0535 8.68399 23.1492 8.7797 23.1213 8.75181L25.1729 6.75232C25.4758 6.79541 25.8475 6.89495 26.0189 7.06634C26.185 7.23248 26.2881 7.59823 26.3328 7.91263ZM16.4023 17.791C15.9544 18.239 15.4 18.5816 14.7991 18.7819L13.9776 19.0557L14.2514 18.2341C14.4517 17.6333 14.7943 17.0789 15.2422 16.631L21.9613 9.91189C23.1892 11.1398 23.0935 11.0441 23.1214 11.072C22.3896 11.8038 17.2322 16.9611 16.4023 17.791ZM23.0801 25.5391C23.0801 25.9914 22.7121 26.3594 22.2598 26.3594C21.8074 26.3594 21.4395 25.9914 21.4395 25.5391V21.4375H23.0801V25.5391ZM19.7988 25.5391C19.7988 25.8266 19.8489 26.1026 19.9399 26.3594H4.10352C2.74656 26.3594 1.64258 25.2554 1.64258 23.8984V1.64062H2.71281C3.05133 2.59552 3.96368 3.28125 5.0332 3.28125C6.10273 3.28125 7.01502 2.59552 7.35359 1.64062H8.45506C8.79357 2.59552 9.70592 3.28125 10.7754 3.28125C11.845 3.28125 12.7573 2.59552 13.0958 1.64062H14.1973C14.5358 2.59552 15.4482 3.28125 16.5177 3.28125C17.5872 3.28125 18.4995 2.59552 18.8381 1.64062H19.7989V9.75412L14.082 15.4709C13.455 16.098 12.9753 16.8742 12.6949 17.7154L11.9022 20.0934C11.804 20.3882 11.8807 20.7132 12.1004 20.9328C12.3209 21.1533 12.6461 21.229 12.9399 21.131L15.3179 20.3383C16.1592 20.0579 16.9353 19.5782 17.5624 18.9512L19.7989 16.7147C19.7988 18.5664 19.7988 23.6859 19.7988 25.5391Z" fill="#363636"/>
</svg>
