<svg width="28" height="28" viewBox="0 0 28 28" fill="none" xmlns="http://www.w3.org/2000/svg">
<g clip-path="url(#clip0)">
<path d="M25.4844 4.81179H19.1375C19.9696 3.61829 19.8545 1.96022 18.7905 0.896278C17.5965 -0.297823 15.6536 -0.297823 14.4595 0.896278C14.3255 1.03032 14.1654 1.2244 14.0001 1.55269C13.8346 1.2244 13.6746 1.03032 13.5406 0.896278C12.3465 -0.297823 10.4036 -0.297823 9.20959 0.896278C8.14565 1.96022 8.03059 3.61824 8.86266 4.81179H2.51562C1.12853 4.81179 0 5.94032 0 7.32742V9.29617C0 10.4164 0.736148 11.3676 1.75 11.6922V25.4837C1.75 26.8708 2.87853 27.9993 4.26562 27.9993H12.25H15.75H23.7344C25.1215 27.9993 26.25 26.8708 26.25 25.4837V11.6922C27.2639 11.3675 28 10.4163 28 9.29617V7.32742C28 5.94032 26.8715 4.81179 25.4844 4.81179ZM14.875 10.0618H13.125V6.56179H14.875V10.0618ZM15.0808 4.07111C15.3511 2.51661 15.6623 2.16831 15.697 2.13369C15.9528 1.87781 16.2889 1.7499 16.6251 1.7499C16.9612 1.7499 17.2973 1.87781 17.5532 2.13369C18.0649 2.64546 18.0649 3.47807 17.5532 3.98984C17.5188 4.02424 17.1725 4.33372 15.6298 4.60349C15.4053 4.64275 15.1861 4.67562 14.9839 4.7028C15.0105 4.50527 15.0426 4.29117 15.0808 4.07111ZM10.4469 2.13369C10.7028 1.87781 11.0389 1.7499 11.375 1.7499C11.7111 1.7499 12.0472 1.87781 12.3031 2.13369C12.3375 2.16809 12.647 2.51432 12.9167 4.057C12.956 4.28154 12.9889 4.50073 13.0161 4.70291C12.8185 4.67628 12.6044 4.64423 12.3844 4.60595C10.8299 4.33568 10.4816 4.02446 10.447 3.98984C9.93519 3.47813 9.93519 2.64546 10.4469 2.13369ZM1.75 7.32742C1.75 6.90523 2.09344 6.56179 2.51562 6.56179H11.375V10.0618H2.625H2.51562C2.09344 10.0618 1.75 9.71836 1.75 9.29617V7.32742ZM3.5 25.4837V11.8118H11.375V26.2493H4.26562C3.84344 26.2493 3.5 25.9059 3.5 25.4837ZM13.125 26.2493V11.8118H14.875V26.2493H13.125ZM24.5 25.4837C24.5 25.9059 24.1566 26.2493 23.7344 26.2493H16.625V11.8118H24.5V25.4837ZM26.25 9.29617C26.25 9.71836 25.9066 10.0618 25.4844 10.0618H25.375H16.625V6.56179H25.4844C25.9066 6.56179 26.25 6.90523 26.25 7.32742V9.29617Z" fill="#363636"/>
</g>
<defs>
<clipPath id="clip0">
<rect width="28" height="28" fill="white"/>
</clipPath>
</defs>
</svg>
