<svg width="28" height="28" viewBox="0 0 28 28" fill="none" xmlns="http://www.w3.org/2000/svg">
<g clip-path="url(#clip0)">
<path d="M26.1381 14.362C26.0254 14.1315 26.0254 13.8672 26.1381 13.6367L27.1824 11.5004C27.7638 10.3109 27.3031 8.89309 26.1336 8.27256L24.0331 7.15803C23.8064 7.03783 23.6511 6.82389 23.6067 6.57129L23.1959 4.2291C22.9671 2.92502 21.7609 2.04872 20.4502 2.23416L18.0957 2.56721C17.8416 2.60308 17.5903 2.52138 17.406 2.34304L15.6969 0.689741C14.7453 -0.230863 13.2545 -0.230918 12.303 0.689741L10.5939 2.34321C10.4095 2.5216 10.1582 2.60314 9.90413 2.56737L7.54969 2.23433C6.23856 2.04877 5.03271 2.92519 4.80395 4.22926L4.39314 6.57135C4.34879 6.824 4.19342 7.03788 3.96686 7.15814L1.86632 8.27267C0.696781 8.89315 0.236096 10.311 0.81753 11.5005L1.86178 13.6368C1.97444 13.8673 1.97444 14.1317 1.86178 14.3621L0.817475 16.4984C0.236041 17.6879 0.696726 19.1057 1.86627 19.7262L3.9668 20.8408C4.19342 20.961 4.34879 21.1749 4.39314 21.4275L4.80395 23.7697C5.0122 24.9568 6.03015 25.7894 7.20007 25.7893C7.3153 25.7893 7.43222 25.7812 7.54974 25.7646L9.90419 25.4315C10.1581 25.3955 10.4096 25.4774 10.594 25.6557L12.303 27.309C12.7789 27.7694 13.3893 27.9995 13.9999 27.9994C14.6104 27.9994 15.2212 27.7692 15.6969 27.309L17.406 25.6557C17.5904 25.4774 17.8417 25.3959 18.0957 25.4315L20.4502 25.7646C21.7615 25.9501 22.9671 25.0737 23.1959 23.7696L23.6068 21.4276C23.6511 21.1749 23.8065 20.961 24.0331 20.8408L26.1336 19.7262C27.3031 19.1058 27.7638 17.6879 27.1824 16.4984L26.1381 14.362ZM25.3767 18.2996L23.2761 19.4141C22.6064 19.7696 22.1471 20.4016 22.0161 21.1484L21.6053 23.4906C21.5279 23.9318 21.12 24.2281 20.6764 24.1655L18.3219 23.8325C17.5711 23.7261 16.8281 23.9678 16.2831 24.4949L14.574 26.1482C14.2521 26.4595 13.7478 26.4595 13.4258 26.1482L11.7167 24.4949C11.2562 24.0493 10.6541 23.8079 10.0255 23.8079C9.91031 23.8079 9.79421 23.816 9.67795 23.8324L7.3235 24.1655C6.88021 24.2281 6.47197 23.9317 6.39453 23.4905L5.98366 21.1483C5.85263 20.4015 5.39337 19.7694 4.72362 19.4141L2.62308 18.2996C2.22737 18.0896 2.07151 17.61 2.26822 17.2075L3.31252 15.0712C3.64546 14.39 3.64546 13.6087 3.31252 12.9275L2.26822 10.7912C2.07151 10.3887 2.22737 9.90907 2.62308 9.69913L4.72362 8.5846C5.39332 8.22919 5.85263 7.59711 5.98361 6.85031L6.39442 4.50816C6.47186 4.06695 6.87971 3.77054 7.32339 3.83321L9.67784 4.16626C10.4284 4.27252 11.1717 4.03096 11.7166 3.50383L13.4257 1.85053C13.7476 1.53914 14.252 1.53914 14.574 1.85053L16.283 3.50383C16.828 4.03102 17.5711 4.27252 18.3218 4.16626L20.6762 3.83321C21.1196 3.77049 21.5278 4.06695 21.6052 4.50816L22.016 6.85036C22.1471 7.59717 22.6063 8.2293 23.2761 8.5846L25.3766 9.69913C25.7723 9.90907 25.9282 10.3887 25.7315 10.7912L24.6872 12.9275C24.3542 13.6086 24.3542 14.39 24.6872 15.0711L25.7315 17.2074C25.9282 17.61 25.7724 18.0897 25.3767 18.2996Z" fill="#363636"/>
<path d="M19.8996 8.10007C19.5844 7.78474 19.073 7.78474 18.7577 8.10007L8.09978 18.7581C7.78445 19.0734 7.78445 19.5846 8.09978 19.9C8.25744 20.0576 8.4641 20.1365 8.67071 20.1365C8.87732 20.1365 9.08404 20.0577 9.24164 19.9L19.8996 9.24204C20.215 8.92666 20.215 8.41545 19.8996 8.10007Z" fill="#363636"/>
<path d="M10.7713 6.73286C9.13874 6.73286 7.81055 8.06105 7.81055 9.69357C7.81055 11.3261 9.13874 12.6543 10.7713 12.6543C12.4038 12.6543 13.732 11.3261 13.732 9.69357C13.732 8.06105 12.4038 6.73286 10.7713 6.73286ZM10.7713 11.0393C10.0292 11.0393 9.42551 10.4356 9.42551 9.69352C9.42551 8.95147 10.0292 8.34778 10.7713 8.34778C11.5133 8.34778 12.1171 8.95147 12.1171 9.69352C12.117 10.4356 11.5133 11.0393 10.7713 11.0393Z" fill="#363636"/>
<path d="M17.2283 15.3458C15.5958 15.3458 14.2676 16.674 14.2676 18.3065C14.2676 19.939 15.5958 21.2672 17.2283 21.2672C18.8608 21.2672 20.189 19.939 20.189 18.3065C20.189 16.674 18.8608 15.3458 17.2283 15.3458ZM17.2283 19.6522C16.4862 19.6522 15.8825 19.0486 15.8825 18.3065C15.8825 17.5645 16.4862 16.9608 17.2283 16.9608C17.9703 16.9608 18.574 17.5645 18.574 18.3065C18.574 19.0486 17.9703 19.6522 17.2283 19.6522Z" fill="#363636"/>
</g>
<defs>
<clipPath id="clip0">
<rect width="28" height="28" fill="white"/>
</clipPath>
</defs>
</svg>
